<?xml version="1.0" encoding="UTF-8" standalone="no"?>
<!-- Generator: Adobe Illustrator 17.0.1, SVG Export Plug-In . SVG Version: 6.00 Build 0)  -->

<svg
   xmlns:dc="http://purl.org/dc/elements/1.1/"
   xmlns:cc="http://creativecommons.org/ns#"
   xmlns:rdf="http://www.w3.org/1999/02/22-rdf-syntax-ns#"
   xmlns:svg="http://www.w3.org/2000/svg"
   xmlns="http://www.w3.org/2000/svg"
   xmlns:sodipodi="http://sodipodi.sourceforge.net/DTD/sodipodi-0.dtd"
   xmlns:inkscape="http://www.inkscape.org/namespaces/inkscape"
   version="1.1"
   id="Layer_1"
   x="0px"
   y="0px"
   viewBox="0 0 50.117698 32.250103"
   enable-background="new 0 0 50 50"
   xml:space="preserve"
   inkscape:version="0.91 r13725"
   sodipodi:docname="quantum-mobile-v2.svg"
   width="50.117699"
   height="32.250103"
   inkscape:export-filename="/Users/pizzi/Desktop/quantum-mobile-v2.png"
   inkscape:export-xdpi="669.76532"
   inkscape:export-ydpi="669.76532"><metadata
     id="metadata27"><rdf:RDF><cc:Work
         rdf:about=""><dc:format>image/svg+xml</dc:format><dc:type
           rdf:resource="http://purl.org/dc/dcmitype/StillImage" /><dc:title></dc:title></cc:Work></rdf:RDF></metadata><defs
     id="defs25" /><sodipodi:namedview
     pagecolor="#ffffff"
     bordercolor="#666666"
     borderopacity="1"
     objecttolerance="10"
     gridtolerance="10"
     guidetolerance="10"
     inkscape:pageopacity="0"
     inkscape:pageshadow="2"
     inkscape:window-width="1316"
     inkscape:window-height="866"
     id="namedview23"
     showgrid="false"
     fit-margin-top="0"
     fit-margin-left="0"
     fit-margin-right="0"
     fit-margin-bottom="0"
     inkscape:zoom="3.337544"
     inkscape:cx="17.664444"
     inkscape:cy="10.882459"
     inkscape:window-x="0"
     inkscape:window-y="0"
     inkscape:window-maximized="0"
     inkscape:current-layer="Layer_1" /><g
     id="g4286"
     transform="matrix(0.5923155,0,0,0.5923155,102.10983,-33.181527)"><g
       id="g4168"><path
         inkscape:connector-curvature="0"
         id="path4152"
         d="m -167.98663,110.16856 c -1.6622,-0.21731 -3.10818,-1.40891 -3.65421,-3.01134 -0.19278,-0.56573 -0.21856,-0.78945 -0.23621,-2.04913 l -0.0165,-1.17981 0.31791,0 0.31792,0 0,-0.12295 0,-0.12294 -0.35502,-0.0101 -0.35502,-0.0101 3.27869,-2.1437 c 1.80328,-1.17903 3.3268,-2.154379 3.38559,-2.167449 0.0716,-0.0158 0.10114,-0.0403 0.0895,-0.074 -0.037,-0.10643 -0.0386,-37.26542 -0.002,-37.7957 0.0593,-0.85055 0.22059,-1.46821 0.56637,-2.16909 0.76701,-1.55473 2.17208,-2.61554 3.91612,-2.95661 0.3077,-0.0602 1.72925,-0.0632 30.69832,-0.0632 l 30.375669,0 0.39004,0.0804 c 0.519535,0.107 0.857993,0.22182 1.328241,0.45058 0.487739,0.23728 0.777571,0.42684 1.19,0.77833 1.00218,0.85407 1.696466,2.17078 1.857239,3.52226 0.02784,0.23416 0.03837,5.64707 0.03766,19.33708 l -8.78e-4,19.01189 3.136092,1.897629 c 2.905932,1.75837 3.150191,1.89907 3.328228,1.91717 l 0.192147,0.0195 -0.0027,1.40157 c -0.0027,1.15722 -0.01322,1.46011 -0.06243,1.73727 -0.214547,1.20831 -0.910809,2.29126 -1.905534,2.96387 -0.517639,0.35001 -0.975778,0.54838 -1.627539,0.70469 l -0.31441,0.0754 -37.816735,0.005 c -21.72111,0.003 -37.91883,-0.009 -38.05658,-0.0264 z"
         style="fill:#d57962;fill-opacity:1"
         sodipodi:nodetypes="csscccccccscccscsccsccscscccscccscc" /><rect
         style="color:#000000;clip-rule:nonzero;display:inline;overflow:visible;visibility:visible;opacity:1;isolation:auto;mix-blend-mode:normal;color-interpolation:sRGB;color-interpolation-filters:linearRGB;solid-color:#000000;solid-opacity:1;fill:#3a72ad;fill-opacity:1;fill-rule:nonzero;stroke:none;stroke-width:0.66767329;stroke-linecap:butt;stroke-linejoin:miter;stroke-miterlimit:4;stroke-dasharray:none;stroke-dashoffset:0;stroke-opacity:1;color-rendering:auto;image-rendering:auto;shape-rendering:auto;text-rendering:auto;enable-background:accumulate"
         id="rect4154"
         width="61.237904"
         height="35.43676"
         x="-160.71733"
         y="61.379742"
         rx="0"
         ry="0" /><path
         style="fill:#863724;fill-opacity:1"
         d="m -168.36958,110.44022 c -1.67899,-0.21951 -3.13957,-1.42314 -3.69112,-3.04176 -0.19472,-0.57145 -0.22077,-0.79742 -0.23859,-2.06983 l -0.0167,-1.19173 0.32112,0 0.32113,0 0,-0.12419 0,-0.12418 -0.3586,-0.0102 -0.35861,-0.0102 3.31181,-2.16536 c 1.82149,-1.19095 3.3604,-2.176145 3.41979,-2.189344 0.0723,-0.01604 0.10216,-0.04072 0.0904,-0.07468 -0.0374,-0.1075 -0.039,-37.641838 -0.002,-38.177468 0.06,-0.859143 0.22283,-1.483038 0.57209,-2.191002 0.77477,-1.57044 2.19402,-2.64196 3.95568,-2.986474 0.31082,-0.06081 1.74671,-0.06378 31.00841,-0.06378 l 30.682485,0 0.393984,0.08117 c 0.524783,0.108071 0.86666,0.224052 1.341658,0.455129 0.492666,0.239665 0.785425,0.43115 1.20202,0.786186 1.012303,0.862701 1.713602,2.192713 1.875999,3.55784 0.02812,0.236518 0.03876,5.704106 0.03804,19.5324 l -8.87e-4,19.203929 3.167769,1.916804 c 2.935284,1.77613 3.182012,1.91825 3.361847,1.93653 l 0.194088,0.0197 -0.0027,1.41573 c -0.0027,1.16891 -0.01335,1.47485 -0.06307,1.75482 -0.216714,1.22051 -0.920009,2.3144 -1.924782,2.99381 -0.522867,0.35354 -0.985634,0.55391 -1.643978,0.7118 l -0.317586,0.0762 -38.198727,0.005 c -21.94051,0.003 -38.30184,-0.009 -38.441,-0.0267 z m 76.8338,-1.36223 c 0.435006,-0.12278 0.686622,-0.23834 1.042211,-0.47865 0.54088,-0.36554 1.024676,-0.98132 1.236361,-1.57365 0.154796,-0.43317 0.191551,-0.7224 0.191551,-1.5074 l 0,-0.73628 -40.977623,0.009 -40.97763,0.009 0.004,0.77059 c 0.005,0.8894 0.0568,1.19269 0.29278,1.70426 0.22958,0.49761 0.53596,0.88705 0.9584,1.21825 0.49007,0.38424 0.93866,0.5596 1.7266,0.67495 0.0485,0.007 17.20619,0.0111 38.12816,0.009 l 38.039937,-0.004 0.335235,-0.0946 z m -4.279284,-9.663174 c 0.01491,-0.05423 0.02714,-8.695095 0.02714,-19.201967 0,-20.773966 0.01454,-19.293422 -0.196083,-19.950659 -0.517828,-1.615843 -1.888763,-2.740675 -3.572734,-2.931394 -0.454739,-0.05153 -60.480309,-0.05333 -60.961459,-0.0019 -1.90962,0.204287 -3.40284,1.623088 -3.72847,3.542654 -0.0461,0.27184 -0.0514,2.636798 -0.0434,19.430837 0.005,10.516728 0.0219,19.141482 0.0376,19.166122 0.0228,0.03577 6.90546,0.04477 34.21939,0.04477 l 34.190841,0 0.02714,-0.09856 z m -65.448836,-20.169683 0,-18.332815 31.22945,0 31.229439,0 0,18.332815 0,18.332815 -31.229439,0 -31.22945,0 0,-18.332815 z m 61.22383,0 0,-17.078367 -30.01203,0 -30.01203,0 0,17.078367 0,17.078376 30.01203,0 30.01203,0 0,-17.078376 z m -30.47437,-19.063802 c -0.21247,-0.100477 -0.40613,-0.28713 -0.51623,-0.497524 -0.0642,-0.122674 -0.0792,-0.209151 -0.0792,-0.456021 0,-0.347145 0.0639,-0.511334 0.28691,-0.737899 0.317,-0.321973 0.82816,-0.401033 1.24032,-0.191837 0.21535,0.109306 0.35817,0.255825 0.48699,0.499642 0.10068,0.19053 0.0934,0.68253 -0.0132,0.886115 -0.11009,0.210394 -0.30375,0.397041 -0.51622,0.497524 -0.25277,0.11954 -0.63662,0.11954 -0.8894,0 z"
         id="path4150"
         inkscape:connector-curvature="0" /></g><g
       id="g4156"
       transform="matrix(0.03966642,0,0,0.03966642,-137.73824,88.916897)"
       style="stroke:#c4d5e7;stroke-opacity:1"><g
         transform="translate(-375.12613,-421.11858)"
         id="g4158"
         style="stroke:#c4d5e7;stroke-opacity:1"><ellipse
           style="color:#000000;clip-rule:nonzero;display:inline;overflow:visible;visibility:visible;opacity:1;isolation:auto;mix-blend-mode:normal;color-interpolation:sRGB;color-interpolation-filters:linearRGB;solid-color:#000000;solid-opacity:1;fill:none;fill-opacity:1;fill-rule:nonzero;stroke:#c4d5e7;stroke-width:25;stroke-linecap:butt;stroke-linejoin:miter;stroke-miterlimit:4;stroke-dasharray:none;stroke-dashoffset:0;stroke-opacity:1;color-rendering:auto;image-rendering:auto;shape-rendering:auto;text-rendering:auto;enable-background:accumulate"
           id="ellipse4160"
           cx="568.0824"
           cy="153.51976"
           rx="91.084938"
           ry="238.49872" /><ellipse
           ry="238.49872"
           rx="91.084938"
           cy="415.2139"
           cx="-416.99323"
           id="ellipse4162"
           style="color:#000000;clip-rule:nonzero;display:inline;overflow:visible;visibility:visible;opacity:1;isolation:auto;mix-blend-mode:normal;color-interpolation:sRGB;color-interpolation-filters:linearRGB;solid-color:#000000;solid-opacity:1;fill:none;fill-opacity:1;fill-rule:nonzero;stroke:#c4d5e7;stroke-width:25;stroke-linecap:butt;stroke-linejoin:miter;stroke-miterlimit:4;stroke-dasharray:none;stroke-dashoffset:0;stroke-opacity:1;color-rendering:auto;image-rendering:auto;shape-rendering:auto;text-rendering:auto;enable-background:accumulate"
           transform="matrix(-0.5,-0.8660254,0.8660254,-0.5,0,0)" /><ellipse
           transform="matrix(-0.5,0.8660254,-0.8660254,-0.5,0,0)"
           style="color:#000000;clip-rule:nonzero;display:inline;overflow:visible;visibility:visible;opacity:1;isolation:auto;mix-blend-mode:normal;color-interpolation:sRGB;color-interpolation-filters:linearRGB;solid-color:#000000;solid-opacity:1;fill:none;fill-opacity:1;fill-rule:nonzero;stroke:#c4d5e7;stroke-width:25;stroke-linecap:butt;stroke-linejoin:miter;stroke-miterlimit:4;stroke-dasharray:none;stroke-dashoffset:0;stroke-opacity:1;color-rendering:auto;image-rendering:auto;shape-rendering:auto;text-rendering:auto;enable-background:accumulate"
           id="ellipse4164"
           cx="-151.08917"
           cy="-568.73364"
           rx="91.084938"
           ry="238.49872" /></g><circle
         r="51.534901"
         cy="-267.59882"
         cx="192.95625"
         id="circle4166"
         style="color:#000000;clip-rule:nonzero;display:inline;overflow:visible;visibility:visible;opacity:1;isolation:auto;mix-blend-mode:normal;color-interpolation:sRGB;color-interpolation-filters:linearRGB;solid-color:#000000;solid-opacity:1;fill:#89aace;fill-opacity:1;fill-rule:nonzero;stroke:none;stroke-width:25;stroke-linecap:butt;stroke-linejoin:miter;stroke-miterlimit:4;stroke-dasharray:none;stroke-dashoffset:0;stroke-opacity:1;color-rendering:auto;image-rendering:auto;shape-rendering:auto;text-rendering:auto;enable-background:accumulate" /></g><g
       transform="matrix(0.44547243,0,0,0.44547243,-20.187349,101.52137)"
       id="g4281"><path
         style="clip-rule:evenodd;fill:#ffffff;fill-opacity:1;fill-rule:evenodd"
         inkscape:connector-curvature="0"
         d="m -204.05049,-49.57615 c 4.24,0 7.677,3.437 7.677,7.677 0,2.328 -1.036,4.413 -2.672,5.821 l -2.71,-4.695 1.951,-1.126 -3.184,-1.839 -3.185,-1.837 0,3.677 0,3.677 1.95,-1.126 2.711,4.696 c -0.795,0.279 -1.649,0.431 -2.539,0.431 -4.24,0 -7.677,-3.438 -7.677,-7.678 0,-4.24 3.438,-7.678 7.678,-7.678"
         id="path3-4" /><path
         style="clip-rule:evenodd;fill:#c4d5e7;fill-opacity:1;fill-rule:evenodd"
         inkscape:connector-curvature="0"
         d="m -213.27249,-18.24915 c 4.24,0 7.678,-3.438 7.678,-7.678 0,-2.328 -1.036,-4.413 -2.672,-5.82 l -2.71,4.694 1.95,1.126 -3.184,1.839 -3.185,1.838 0,-3.677 0,-3.677 1.95,1.126 2.711,-4.696 c -0.795,-0.278 -1.649,-0.43 -2.539,-0.43 -4.24,0 -7.677,3.437 -7.677,7.677 0,4.24 3.438,7.678 7.678,7.678"
         id="path5-9" /><path
         style="clip-rule:evenodd;fill:#89aace;fill-opacity:1;fill-rule:evenodd"
         inkscape:connector-curvature="0"
         d="m -188.18049,-29.76515 c -2.12,-3.672 -6.815,-4.93 -10.487,-2.81 -2.016,1.163 -3.304,3.104 -3.706,5.225 l 5.421,0 0,-2.253 3.185,1.839 3.184,1.838 -3.184,1.839 -3.185,1.838 0,-2.252 -5.422,0 c 0.156,0.827 0.452,1.643 0.896,2.414 2.121,3.672 6.815,4.93 10.487,2.811 3.672,-2.122 4.93,-6.817 2.811,-10.489"
         id="path7-7" /></g></g></svg>