<?xml version="1.0" encoding="UTF-8" standalone="no"?>
<!-- Generator: Adobe Illustrator 17.0.1, SVG Export Plug-In . SVG Version: 6.00 Build 0)  -->

<svg
   xmlns:dc="http://purl.org/dc/elements/1.1/"
   xmlns:cc="http://creativecommons.org/ns#"
   xmlns:rdf="http://www.w3.org/1999/02/22-rdf-syntax-ns#"
   xmlns:svg="http://www.w3.org/2000/svg"
   xmlns="http://www.w3.org/2000/svg"
   xmlns:sodipodi="http://sodipodi.sourceforge.net/DTD/sodipodi-0.dtd"
   xmlns:inkscape="http://www.inkscape.org/namespaces/inkscape"
   version="1.1"
   id="Layer_1"
   x="0px"
   y="0px"
   viewBox="0 0 47.421104 32.250103"
   enable-background="new 0 0 50 50"
   xml:space="preserve"
   inkscape:version="0.92.2 2405546, 2018-03-11"
   sodipodi:docname="quantum-mobile-v3_a.svg"
   width="47.421104"
   height="32.250103"
   inkscape:export-filename="/Users/pizzi/Desktop/quantum-mobile-v2.png"
   inkscape:export-xdpi="669.76532"
   inkscape:export-ydpi="669.76532"><metadata
     id="metadata27"><rdf:RDF><cc:Work
         rdf:about=""><dc:format>image/svg+xml</dc:format><dc:type
           rdf:resource="http://purl.org/dc/dcmitype/StillImage" /><dc:title></dc:title></cc:Work></rdf:RDF></metadata><defs
     id="defs25" /><sodipodi:namedview
     pagecolor="#ffffff"
     bordercolor="#666666"
     borderopacity="1"
     objecttolerance="10"
     gridtolerance="10"
     guidetolerance="10"
     inkscape:pageopacity="0"
     inkscape:pageshadow="2"
     inkscape:window-width="1316"
     inkscape:window-height="856"
     id="namedview23"
     showgrid="false"
     fit-margin-top="0"
     fit-margin-left="0"
     fit-margin-right="0"
     fit-margin-bottom="0"
     inkscape:zoom="4.72"
     inkscape:cx="-15.37736"
     inkscape:cy="21.776814"
     inkscape:window-x="64"
     inkscape:window-y="3"
     inkscape:window-maximized="0"
     inkscape:current-layer="Layer_1" /><g
     id="g1192"
     transform="matrix(0.94619478,0,0,1,1.6508497e-6,-3.4094099e-7)"><g
       transform="matrix(0.5923155,0,0,0.5923155,102.10983,-33.181527)"
       id="g4168"><path
         inkscape:connector-curvature="0"
         id="path4152"
         d="m -167.98663,110.16856 c -1.6622,-0.21731 -3.10818,-1.40891 -3.65421,-3.01134 -0.19278,-0.56573 -0.21856,-0.78945 -0.23621,-2.04913 l -0.0165,-1.17981 h 0.31791 0.31792 v -0.12295 -0.12294 l -0.35502,-0.0101 -0.35502,-0.0101 3.27869,-2.1437 c 1.80328,-1.17903 3.3268,-2.154379 3.38559,-2.167449 0.0716,-0.0158 0.10114,-0.0403 0.0895,-0.074 -0.037,-0.10643 -0.0386,-37.26542 -0.002,-37.7957 0.0593,-0.85055 0.22059,-1.46821 0.56637,-2.16909 0.76701,-1.55473 2.17208,-2.61554 3.91612,-2.95661 0.3077,-0.0602 1.72925,-0.0632 30.69832,-0.0632 h 30.375669 l 0.39004,0.0804 c 0.519535,0.107 0.857993,0.22182 1.328241,0.45058 0.487739,0.23728 0.777571,0.42684 1.19,0.77833 1.00218,0.85407 1.696466,2.17078 1.857239,3.52226 0.02784,0.23416 0.03837,5.64707 0.03766,19.33708 l -8.78e-4,19.01189 3.136092,1.897629 c 2.905932,1.75837 3.150191,1.89907 3.328228,1.91717 l 0.192147,0.0195 -0.0027,1.40157 c -0.0027,1.15722 -0.01322,1.46011 -0.06243,1.73727 -0.214547,1.20831 -0.910809,2.29126 -1.905534,2.96387 -0.517639,0.35001 -0.975778,0.54838 -1.627539,0.70469 l -0.31441,0.0754 -37.816735,0.005 c -21.72111,0.003 -37.91883,-0.009 -38.05658,-0.0264 z"
         style="fill:#d57962;fill-opacity:1"
         sodipodi:nodetypes="csscccccccscccscsccsccscscccscccscc" /><rect
         style="color:#000000;clip-rule:nonzero;display:inline;overflow:visible;visibility:visible;opacity:1;isolation:auto;mix-blend-mode:normal;color-interpolation:sRGB;color-interpolation-filters:linearRGB;solid-color:#000000;solid-opacity:1;fill:#3a72ad;fill-opacity:1;fill-rule:nonzero;stroke:none;stroke-width:0.66767329;stroke-linecap:butt;stroke-linejoin:miter;stroke-miterlimit:4;stroke-dasharray:none;stroke-dashoffset:0;stroke-opacity:1;color-rendering:auto;image-rendering:auto;shape-rendering:auto;text-rendering:auto;enable-background:accumulate"
         id="rect4154"
         width="61.237904"
         height="35.43676"
         x="-160.71733"
         y="61.379742"
         rx="0"
         ry="0" /><path
         sodipodi:nodetypes="ccccccccccccccccscccccccscccccccccccccsccccccccccccsccccscsccccccccccccccccccccc"
         style="fill:#863724;fill-opacity:1"
         d="m -168.36958,110.44022 c -1.67899,-0.21951 -3.13957,-1.42314 -3.69112,-3.04176 -0.19472,-0.57145 -0.22077,-0.79742 -0.23859,-2.06983 l -0.0167,-1.19173 h 0.32112 0.32113 v -0.12419 -0.12418 l -0.3586,-0.0102 -0.35861,-0.0102 3.31181,-2.16536 c 1.82149,-1.19095 3.3604,-2.176145 3.41979,-2.189344 0.0723,-0.01604 0.10216,-0.04072 0.0904,-0.07468 -0.0374,-0.1075 -0.039,-37.641838 -0.002,-38.177468 0.06,-0.859143 0.22283,-1.483038 0.57209,-2.191002 0.77477,-1.57044 2.19402,-2.64196 3.95568,-2.986474 0.31082,-0.06081 1.74671,-0.06378 31.00841,-0.06378 h 30.682485 l 0.393984,0.08117 c 0.524783,0.108071 0.86666,0.224052 1.341658,0.455129 0.492666,0.239665 0.785425,0.43115 1.20202,0.786186 1.012303,0.862701 1.713602,2.192713 1.875999,3.55784 0.02812,0.236518 0.03876,5.704106 0.03804,19.5324 l -8.87e-4,19.203929 3.167769,1.916804 c 2.935284,1.77613 3.182012,1.91825 3.361847,1.93653 l 0.194088,0.0197 -0.0027,1.41573 c -0.0027,1.16891 -0.01335,1.47485 -0.06307,1.75482 -0.216714,1.22051 -0.920009,2.3144 -1.924782,2.99381 -0.522867,0.35354 -0.985634,0.55391 -1.643978,0.7118 l -0.317586,0.0762 -38.198727,0.005 c -21.94051,0.003 -38.30184,-0.009 -38.441,-0.0267 z m 76.8338,-1.36223 c 0.435006,-0.12278 0.686622,-0.23834 1.042211,-0.47865 0.54088,-0.36554 1.024676,-0.98132 1.236361,-1.57365 0.154796,-0.43317 0.191551,-0.7224 0.191551,-1.5074 v -0.73628 l -40.977623,0.009 -40.97763,0.009 0.004,0.77059 c 0.005,0.8894 0.0568,1.19269 0.29278,1.70426 0.22958,0.49761 0.53596,0.88705 0.9584,1.21825 0.49007,0.38424 0.93866,0.5596 1.7266,0.67495 0.0485,0.007 17.20619,0.0111 38.12816,0.009 l 38.039937,-0.004 0.335235,-0.0946 z m -4.279284,-9.663174 c 0.01491,-0.05423 0.02714,-8.695095 0.02714,-19.201967 0,-20.773966 0.01454,-19.293422 -0.196083,-19.950659 -0.517828,-1.615843 -1.888763,-2.740675 -3.572734,-2.931394 -0.454739,-0.05153 -60.480309,-0.05333 -60.961459,-0.0019 -1.90962,0.204287 -3.40284,1.623088 -3.72847,3.542654 -0.0461,0.27184 -0.0514,2.636798 -0.0434,19.430837 0.005,10.516728 0.0219,19.141482 0.0376,19.166122 0.0228,0.03577 6.90546,0.04477 34.21939,0.04477 h 34.190841 l 0.02714,-0.09856 z M -161.2639,79.245133 V 60.912318 h 31.22945 31.229439 v 18.332815 18.332815 h -31.229439 -31.22945 z m 61.22383,0 V 62.166766 h -30.01203 -30.01203 v 17.078367 17.078376 h 30.01203 30.01203 z"
         id="path4150"
         inkscape:connector-curvature="0" /></g></g><flowRoot
     transform="matrix(1.0666667,0,0,1.0666667,1093.609,705.20024)"
     style="font-style:normal;font-variant:normal;font-weight:normal;font-stretch:normal;line-height:0.01%;font-family:Arial;-inkscape-font-specification:Arial;letter-spacing:0px;word-spacing:0px;fill:#000000;fill-opacity:1;stroke:none;stroke-width:1px;stroke-linecap:butt;stroke-linejoin:miter;stroke-opacity:1"
     id="flowRoot4296"
     xml:space="preserve"><flowRegion
       id="flowRegion4298"><rect
         y="-2071.4741"
         x="-1718.75"
         height="3900"
         width="5706.25"
         id="rect4300" /></flowRegion><flowPara
       style="font-size:20px;line-height:1.25"
       id="flowPara4302"> </flowPara></flowRoot><g
     id="g838"
     transform="matrix(0.15873306,0,0,0.15873306,13.910472,2.6129432)"><g
       transform="translate(-8.0952392,16.658703)"
       id="orange"><path
         style="fill:#ffffff;stroke-width:1"
         d="m 69.80957,1.4279465e-7 c -0.9,0 -1.799284,-7.1614583465e-4 -2.599284,0.0992838472054 l -0.40039,5.10091151 c -2.4,0.3 -4.600847,0.9001301 -6.700847,1.8001301 L 57.210286,2.9003908 c -1.6,0.6999999 -3.100325,1.5992838 -4.500325,2.5992838 l 2.099609,4.5996094 c -1.9,1.4 -3.5,3.100716 -5,4.900716 l -4.500326,-2.099609 c -1,1.4 -1.899284,2.900325 -2.599284,4.500325 l 4.099935,2.898763 c -0.9,2.1 -1.50013,4.40013 -1.80013,6.80013 l -5,0.400391 c -0.2,0.7 -0.200195,1.6 -0.200195,2.5 0,0.9 -7.16e-4,1.799284 0.09928,2.599284 l 5,0.40039 c 0.3,2.4 0.90013,4.700131 1.80013,6.800131 l -4.099935,2.90039 c 0.7,1.6 1.600911,3.100326 2.600911,4.500326 l 4.500326,-2.101237 c 1.4,1.9 3.1,3.500716 5,4.900716 l -2.101237,4.599609 c 1.4,1 2.900326,1.900912 4.500326,2.600912 l 2.90039,-4.099935 c 2.1,0.9 4.399219,1.50013 6.699219,1.80013 L 67.109375,60 h 2.700195 c 0.9,0 1.799284,7.16e-4 2.599284,-0.09928 l 0.40039,-5.100911 c 2.3,-0.3 4.600847,-0.900131 6.700847,-1.800131 l 2.898763,4.200847 c 1.6,-0.7 3.100325,-1.600912 4.500325,-2.600912 L 84.80957,49.900716 c 1.9,-1.4 3.500715,-3.000716 4.900715,-4.900716 l 4.59961,2.200521 c 1,-1.4 1.899284,-2.900326 2.599284,-4.500326 l -4.099935,-2.90039 c 0.9,-2.1 1.500131,-4.399219 1.800131,-6.699219 l 5.10091,-0.501302 c 0.1,-0.8 0.09928,-1.699284 0.09928,-2.599284 0,-0.9 7.15e-4,-1.799284 -0.09928,-2.599284 l -5.10091,-0.40039 c -0.3,-2.4 -0.900131,-4.600847 -1.800131,-6.700847 l 4.200846,-2.898763 c -0.7,-1.6 -1.600911,-3.100325 -2.600911,-4.500325 L 89.80957,15 c -1.4,-1.9 -3.100716,-3.500716 -4.900716,-4.900716 l 2.200521,-4.5996094 c -1.4,-1 -2.900326,-1.8992839 -4.500326,-2.5992838 l -2.999674,4.0999348 c -2.1,-0.9 -4.399219,-1.5001301 -6.699219,-1.8001301 L 72.509765,0.09928399 C 71.609765,-7.1600304e-4 70.70957,1.4279465e-7 69.80957,1.4279465e-7 Z M 60.418294,15.613607 l 8.390299,4.840495 8.387044,4.845377 -5.136718,2.967123 7.141927,12.369791 -6.502279,3.75 -7.140299,-12.366536 -5.138347,2.967122 v -9.689127 z"
         id="path4"
         inkscape:connector-curvature="0"><animateTransform
           attributeName="transform"
           type="rotate"
           from="0 69.80957 30"
           to="360 69.80957 30"
           dur="4s"
           repeatCount="indefinite" /></path></g><g
       transform="rotate(21,38.72342,37.739155)"
       id="blue"><path
         sodipodi:nodetypes="ccccccccccccsccccccccccccccccccccccccccccccccccccccsccccccccccc"
         style="fill:#89aace;stroke-width:1"
         d="m 115.03743,40.445963 -1.70735,4.822592 c -2.39587,-0.331388 -4.67547,-0.320952 -6.93685,0.0049 l -1.73991,-4.711949 c -1.72665,0.262039 -3.40842,0.744077 -5.019532,1.347657 l 0.836592,4.986979 c -2.197608,0.86054 -4.182245,2.088689 -6.097009,3.439128 L 90.56966,47.14191 c -1.328272,1.093477 -2.584871,2.309195 -3.67513,3.673503 l 3.209636,3.862304 c -1.412853,1.795508 -2.588405,3.861311 -3.499349,6.101888 L 81.671549,59.87303 c -0.374359,0.624384 -0.606907,1.49232 -0.839844,2.361654 -0.232937,0.869332 -0.465709,1.738811 -0.576172,2.537434 l 4.726562,1.681316 c -0.331387,2.395867 -0.346975,4.773124 -0.02116,7.034505 l -4.711914,1.739909 c 0.262038,1.726654 0.744077,3.408415 1.347656,5.019531 L 86.486,79.383121 c 0.86054,2.197606 2.088285,4.18297 3.561198,6.02702 L 86.829426,89.3099 c 1.093478,1.328266 2.309195,2.586491 3.673503,3.67675 l 3.862305,-3.209634 c 1.795506,1.412859 3.861876,2.586617 6.005856,3.471684 l -0.934242,5.030925 2.607422,0.698241 c 0.86933,0.232934 1.73881,0.465709 2.53743,0.576167 l 1.70736,-4.822592 c 2.29928,0.305509 4.67547,0.320959 6.93685,-0.005 l 1.71387,4.807942 c 1.72665,-0.262042 3.40841,-0.744083 5.01953,-1.347658 l -0.81055,-5.083009 c 2.19761,-0.860541 4.15693,-1.992258 6.00098,-3.465166 l 3.8737,3.317058 c 1.32827,-1.093483 2.58487,-2.310825 3.67513,-3.675133 l -3.20964,-3.862309 c 1.41286,-1.795508 2.58825,-3.861872 3.47331,-6.005856 l 5.05534,0.838216 c 0.30365,-0.74686 0.53691,-1.616018 0.76986,-2.485352 0.23293,-0.869332 0.4657,-1.738812 0.57616,-2.537434 l -4.82259,-1.707358 c 0.33139,-2.395867 0.32096,-4.675466 -0.005,-6.936848 l 4.80794,-1.713867 c -0.26201,-1.726655 -0.74408,-3.408416 -1.34766,-5.019532 l -4.98535,0.836589 c -0.86054,-2.197605 -2.08885,-4.182807 -3.46517,-6.000977 l 3.31543,-3.873698 c -1.09347,-1.328272 -2.30919,-2.584872 -3.6735,-3.67513 l -3.95996,3.183594 c -1.79551,-1.412854 -3.86188,-2.588246 -6.00586,-3.473307 l 0.93424,-5.029297 c -0.84332,-0.329405 -1.71192,-0.562837 -2.58125,-0.795774 -0.86933,-0.232937 -1.73881,-0.465708 -2.53744,-0.576172 z m -9.86883,20.670065 9.57096,1.501873 9.56735,1.501526 -6.08363,7.536166 -6.08726,7.53582 -2.13378,-5.535605 -13.327979,5.137464 -2.69629,-7.003806 13.324949,-5.136295 z"
         id="path8"
         inkscape:connector-curvature="0"><animateTransform
           attributeName="transform"
           type="rotate"
           from="360 109.80631 70"
           to="0 109.80631 70"
           dur="4s"
           repeatCount="indefinite" /></path></g><g
       transform="rotate(-22,89.866356,80.734721)"
       id="green"><path
         sodipodi:nodetypes="ccccccccccccscccccccccccccccccccccccccsccccccccccccscccccccccccc"
         style="fill:#c4d5e7;stroke-width:1"
         d="m 34.786783,40.445963 -1.705729,4.822592 c -2.395867,-0.331388 -4.677094,-0.320953 -6.938477,0.0049 L 24.402669,40.56154 c -1.726655,0.262039 -3.408417,0.744078 -5.019532,1.347657 l 0.838217,4.986979 c -2.197607,0.86054 -4.18387,2.088689 -6.098633,3.439128 l -3.802084,-3.19336 c -1.328272,1.093494 -2.5864979,2.309212 -3.676757,3.67352 l 3.209635,3.862304 C 8.4406616,56.473276 7.2667366,58.539081 6.3557941,60.779657 L 1.4225258,59.873081 C 1.0481667,60.497466 0.81561916,61.365402 0.58268166,62.234735 0.349745,63.104067 0.11534583,63.973547 0.0048825,64.772169 L 4.731445,66.453485 C 4.4000566,68.849352 4.3844691,71.226607 4.7102866,73.48799 L 8.3333333e-7,75.227899 C 0.2620375,76.954553 0.74245,78.636315 1.3460292,80.24743 L 6.23698,79.383172 c 0.86054,2.197605 2.0882858,4.18297 3.5611975,6.02702 l -3.2194009,3.899742 c 1.0934767,1.328267 2.3091942,2.586492 3.6735024,3.67675 l 3.862305,-3.209633 c 1.795507,1.412858 3.861875,2.586616 6.005859,3.471683 l -0.932617,5.030925 2.607421,0.698242 c 0.869334,0.232933 1.738813,0.465708 2.537435,0.576166 l 1.70573,-4.822591 c 2.299275,0.305508 4.677095,0.320958 6.938476,-0.005 l 1.713868,4.807941 c 1.726654,-0.262041 3.408416,-0.744083 5.019531,-1.347658 l -0.812175,-5.082918 c 2.197605,-0.860541 4.156924,-1.992258 6.000976,-3.465166 l 3.873698,3.317058 c 1.328273,-1.093483 2.586499,-2.310825 3.676758,-3.675133 l -3.209636,-3.862309 c 1.412854,-1.795508 2.586619,-3.861874 3.47168,-6.005856 l 5.056966,0.838216 c 0.303647,-0.74686 0.535292,-1.616019 0.768229,-2.485352 0.232938,-0.869333 0.467337,-1.738812 0.5778,-2.537434 l -4.824219,-1.707358 c 0.331388,-2.395867 0.322579,-4.675467 -0.0032,-6.936848 l 4.806315,-1.713867 c -0.262016,-1.726655 -0.74245,-3.408416 -1.346028,-5.019532 l -4.98698,0.836589 c -0.86054,-2.197606 -2.088849,-4.182807 -3.46517,-6.000977 l 3.31543,-3.873698 c -1.093476,-1.328272 -2.309194,-2.584871 -3.673502,-3.67513 l -3.958333,3.183594 c -1.795512,-1.412853 -3.861881,-2.588246 -6.005865,-3.473307 l 0.934245,-5.029297 c -0.843451,-0.32953 -1.713674,-0.562962 -2.583008,-0.795899 -0.869333,-0.232938 -1.738812,-0.465709 -2.537435,-0.576172 z m 4.231155,17.621044 4.328039,6.132254 -11.664456,8.23745 3.423365,4.84906 -9.647763,0.883011 -9.644123,0.882894 4.05639,-8.795553 4.060161,-8.79561 3.42109,4.846219 z"
         id="path1073"
         inkscape:connector-curvature="0"><animateTransform
           attributeName="transform"
           type="rotate"
           from="360 29.557291 70.000015"
           to="0 29.557291 70.000015"
           dur="4s"
           repeatCount="indefinite" /></path></g></g></svg>