<?xml version="1.0" encoding="UTF-8" standalone="no"?>
<!-- Generator: Adobe Illustrator 17.0.1, SVG Export Plug-In . SVG Version: 6.00 Build 0)  -->

<svg
   xmlns:dc="http://purl.org/dc/elements/1.1/"
   xmlns:cc="http://creativecommons.org/ns#"
   xmlns:rdf="http://www.w3.org/1999/02/22-rdf-syntax-ns#"
   xmlns:svg="http://www.w3.org/2000/svg"
   xmlns="http://www.w3.org/2000/svg"
   xmlns:sodipodi="http://sodipodi.sourceforge.net/DTD/sodipodi-0.dtd"
   xmlns:inkscape="http://www.inkscape.org/namespaces/inkscape"
   version="1.1"
   id="Layer_1"
   x="0px"
   y="0px"
   viewBox="0 0 188.21341 128"
   enable-background="new 0 0 50 50"
   xml:space="preserve"
   inkscape:version="0.92.2 2405546, 2018-03-11"
   sodipodi:docname="quantum-mobile-v3.svg"
   width="188.21341"
   height="128"
   inkscape:export-filename="/Users/pizzi/Desktop/quantum-mobile-v2.png"
   inkscape:export-xdpi="669.76532"
   inkscape:export-ydpi="669.76532"><metadata
     id="metadata27"><rdf:RDF><cc:Work
         rdf:about=""><dc:format>image/svg+xml</dc:format><dc:type
           rdf:resource="http://purl.org/dc/dcmitype/StillImage" /><dc:title></dc:title></cc:Work></rdf:RDF></metadata><defs
     id="defs25"><clipPath
       id="clipPath4224"
       clipPathUnits="userSpaceOnUse"><rect
         style="opacity:1;fill:#ffffff;fill-opacity:1;stroke:none;stroke-width:0.5;stroke-linecap:square;stroke-linejoin:miter;stroke-miterlimit:4;stroke-dasharray:none;stroke-dashoffset:0;stroke-opacity:1"
         id="rect4226"
         width="1548.5715"
         height="934.28571"
         x="-691.42859"
         y="-941.92352" /></clipPath><clipPath
       id="clipPath4230"
       clipPathUnits="userSpaceOnUse"><rect
         y="-590.40851"
         x="-979.91364"
         height="1051.2557"
         width="1825.5415"
         id="rect4232"
         style="opacity:1;fill:#ffffff;fill-opacity:1;stroke:#000000;stroke-width:0.67285109;stroke-linecap:square;stroke-linejoin:miter;stroke-miterlimit:4;stroke-dasharray:none;stroke-dashoffset:0;stroke-opacity:1" /></clipPath><clipPath
       id="clipPath4250"
       clipPathUnits="userSpaceOnUse"><rect
         y="-937.26233"
         x="-277.13654"
         height="393.91031"
         width="888.41724"
         id="rect4252"
         style="opacity:1;fill:#ffffff;fill-opacity:1;stroke:none;stroke-width:20;stroke-linecap:square;stroke-linejoin:miter;stroke-miterlimit:4;stroke-dasharray:none;stroke-dashoffset:0;stroke-opacity:1" /></clipPath><clipPath
       id="clipPath4262"
       clipPathUnits="userSpaceOnUse"><rect
         y="-663.26282"
         x="-640"
         height="696.875"
         width="1490.625"
         id="rect4264"
         style="opacity:1;fill:#ffffff;fill-opacity:1;stroke:none;stroke-width:20;stroke-linecap:square;stroke-linejoin:miter;stroke-miterlimit:4;stroke-dasharray:none;stroke-dashoffset:0;stroke-opacity:1" /></clipPath><clipPath
       id="clipPath4341"
       clipPathUnits="userSpaceOnUse"><rect
         y="-610.65808"
         x="-556.14594"
         height="576.05365"
         width="1389.6031"
         id="rect4343"
         style="opacity:1;fill:#ffffff;fill-opacity:1;stroke:none;stroke-width:20;stroke-linecap:square;stroke-linejoin:miter;stroke-miterlimit:4;stroke-dasharray:none;stroke-dashoffset:0;stroke-opacity:1" /></clipPath></defs><sodipodi:namedview
     pagecolor="#ffffff"
     bordercolor="#666666"
     borderopacity="1"
     objecttolerance="10"
     gridtolerance="10"
     guidetolerance="10"
     inkscape:pageopacity="0"
     inkscape:pageshadow="2"
     inkscape:window-width="1642"
     inkscape:window-height="904"
     id="namedview23"
     showgrid="false"
     fit-margin-top="0"
     fit-margin-left="0"
     fit-margin-right="0"
     fit-margin-bottom="0"
     inkscape:zoom="2.36"
     inkscape:cx="59.36307"
     inkscape:cy="9.5116958"
     inkscape:window-x="64"
     inkscape:window-y="3"
     inkscape:window-maximized="0"
     inkscape:current-layer="g838" /><flowRoot
     transform="matrix(1.0666667,0,0,1.0666667,1093.609,800.95014)"
     style="font-style:normal;font-variant:normal;font-weight:normal;font-stretch:normal;line-height:0.01%;font-family:Arial;-inkscape-font-specification:Arial;letter-spacing:0px;word-spacing:0px;fill:#000000;fill-opacity:1;stroke:none;stroke-width:1px;stroke-linecap:butt;stroke-linejoin:miter;stroke-opacity:1"
     id="flowRoot4296"
     xml:space="preserve"><flowRegion
       id="flowRegion4298"><rect
         y="-2071.4741"
         x="-1718.75"
         height="3900"
         width="5706.25"
         id="rect4300" /></flowRegion><flowPara
       style="font-size:20px;line-height:1.25"
       id="flowPara4302"> </flowPara></flowRoot><g
     id="g838"
     transform="matrix(0.15873306,0,0,0.15873306,13.910472,98.362841)"><g
       id="g850"
       transform="matrix(3.9689796,0,0,3.9689796,260.18466,-554.34024)"><g
         transform="matrix(5.9609182,0,0,6.2998849,-87.634361,-16.461243)"
         id="g1192"><g
           id="g4168"
           transform="matrix(0.5923155,0,0,0.5923155,102.10983,-33.181527)"><path
             sodipodi:nodetypes="csscccccccscccscsccsccscscccscccscc"
             style="fill:#d57962;fill-opacity:1"
             d="m -167.98663,110.16856 c -1.6622,-0.21731 -3.10818,-1.40891 -3.65421,-3.01134 -0.19278,-0.56573 -0.21856,-0.78945 -0.23621,-2.04913 l -0.0165,-1.17981 h 0.31791 0.31792 v -0.12295 -0.12294 l -0.35502,-0.0101 -0.35502,-0.0101 3.27869,-2.1437 c 1.80328,-1.17903 3.3268,-2.154379 3.38559,-2.167449 0.0716,-0.0158 0.10114,-0.0403 0.0895,-0.074 -0.037,-0.10643 -0.0386,-37.26542 -0.002,-37.7957 0.0593,-0.85055 0.22059,-1.46821 0.56637,-2.16909 0.76701,-1.55473 2.17208,-2.61554 3.91612,-2.95661 0.3077,-0.0602 1.72925,-0.0632 30.69832,-0.0632 h 30.375669 l 0.39004,0.0804 c 0.519535,0.107 0.857993,0.22182 1.328241,0.45058 0.487739,0.23728 0.777571,0.42684 1.19,0.77833 1.00218,0.85407 1.696466,2.17078 1.857239,3.52226 0.02784,0.23416 0.03837,5.64707 0.03766,19.33708 l -8.78e-4,19.01189 3.136092,1.897629 c 2.905932,1.75837 3.150191,1.89907 3.328228,1.91717 l 0.192147,0.0195 -0.0027,1.40157 c -0.0027,1.15722 -0.01322,1.46011 -0.06243,1.73727 -0.214547,1.20831 -0.910809,2.29126 -1.905534,2.96387 -0.517639,0.35001 -0.975778,0.54838 -1.627539,0.70469 l -0.31441,0.0754 -37.816735,0.005 c -21.72111,0.003 -37.91883,-0.009 -38.05658,-0.0264 z"
             id="path4152"
             inkscape:connector-curvature="0" /><rect
             ry="0"
             rx="0"
             y="61.379742"
             x="-160.71733"
             height="35.43676"
             width="61.237904"
             id="rect4154"
             style="color:#000000;clip-rule:nonzero;display:inline;overflow:visible;visibility:visible;opacity:1;isolation:auto;mix-blend-mode:normal;color-interpolation:sRGB;color-interpolation-filters:linearRGB;solid-color:#000000;solid-opacity:1;fill:#3a72ad;fill-opacity:1;fill-rule:nonzero;stroke:none;stroke-width:0.66767329;stroke-linecap:butt;stroke-linejoin:miter;stroke-miterlimit:4;stroke-dasharray:none;stroke-dashoffset:0;stroke-opacity:1;color-rendering:auto;image-rendering:auto;shape-rendering:auto;text-rendering:auto;enable-background:accumulate" /><path
             inkscape:connector-curvature="0"
             id="path4150"
             d="m -168.36958,110.44022 c -1.67899,-0.21951 -3.13957,-1.42314 -3.69112,-3.04176 -0.19472,-0.57145 -0.22077,-0.79742 -0.23859,-2.06983 l -0.0167,-1.19173 h 0.32112 0.32113 v -0.12419 -0.12418 l -0.3586,-0.0102 -0.35861,-0.0102 3.31181,-2.16536 c 1.82149,-1.19095 3.3604,-2.176145 3.41979,-2.189344 0.0723,-0.01604 0.10216,-0.04072 0.0904,-0.07468 -0.0374,-0.1075 -0.039,-37.641838 -0.002,-38.177468 0.06,-0.859143 0.22283,-1.483038 0.57209,-2.191002 0.77477,-1.57044 2.19402,-2.64196 3.95568,-2.986474 0.31082,-0.06081 1.74671,-0.06378 31.00841,-0.06378 h 30.682485 l 0.393984,0.08117 c 0.524783,0.108071 0.86666,0.224052 1.341658,0.455129 0.492666,0.239665 0.785425,0.43115 1.20202,0.786186 1.012303,0.862701 1.713602,2.192713 1.875999,3.55784 0.02812,0.236518 0.03876,5.704106 0.03804,19.5324 l -8.87e-4,19.203929 3.167769,1.916804 c 2.935284,1.77613 3.182012,1.91825 3.361847,1.93653 l 0.194088,0.0197 -0.0027,1.41573 c -0.0027,1.16891 -0.01335,1.47485 -0.06307,1.75482 -0.216714,1.22051 -0.920009,2.3144 -1.924782,2.99381 -0.522867,0.35354 -0.985634,0.55391 -1.643978,0.7118 l -0.317586,0.0762 -38.198727,0.005 c -21.94051,0.003 -38.30184,-0.009 -38.441,-0.0267 z m 76.8338,-1.36223 c 0.435006,-0.12278 0.686622,-0.23834 1.042211,-0.47865 0.54088,-0.36554 1.024676,-0.98132 1.236361,-1.57365 0.154796,-0.43317 0.191551,-0.7224 0.191551,-1.5074 v -0.73628 l -40.977623,0.009 -40.97763,0.009 0.004,0.77059 c 0.005,0.8894 0.0568,1.19269 0.29278,1.70426 0.22958,0.49761 0.53596,0.88705 0.9584,1.21825 0.49007,0.38424 0.93866,0.5596 1.7266,0.67495 0.0485,0.007 17.20619,0.0111 38.12816,0.009 l 38.039937,-0.004 0.335235,-0.0946 z m -4.279284,-9.663174 c 0.01491,-0.05423 0.02714,-8.695095 0.02714,-19.201967 0,-20.773966 0.01454,-19.293422 -0.196083,-19.950659 -0.517828,-1.615843 -1.888763,-2.740675 -3.572734,-2.931394 -0.454739,-0.05153 -60.480309,-0.05333 -60.961459,-0.0019 -1.90962,0.204287 -3.40284,1.623088 -3.72847,3.542654 -0.0461,0.27184 -0.0514,2.636798 -0.0434,19.430837 0.005,10.516728 0.0219,19.141482 0.0376,19.166122 0.0228,0.03577 6.90546,0.04477 34.21939,0.04477 h 34.190841 l 0.02714,-0.09856 z M -161.2639,79.245133 V 60.912318 h 31.22945 31.229439 v 18.332815 18.332815 h -31.229439 -31.22945 z m 61.22383,0 V 62.166766 h -30.01203 -30.01203 v 17.078367 17.078376 h 30.01203 30.01203 z"
             style="fill:#863724;fill-opacity:1"
             sodipodi:nodetypes="ccccccccccccccccscccccccscccccccccccccsccccccccccccsccccscsccccccccccccccccccccc" /></g></g><path
         style="fill:#ffffff;stroke-width:1"
         d="m 61.714331,16.658703 c -0.9,0 -1.799284,-7.16e-4 -2.599284,0.09928 l -0.40039,5.100912 c -2.4,0.3 -4.600847,0.90013 -6.700847,1.80013 L 49.115047,19.55909 c -1.6,0.7 -3.100325,1.599284 -4.500325,2.599284 l 2.099609,4.599609 c -1.9,1.4 -3.5,3.100716 -5,4.900716 L 37.214005,29.55909 c -1,1.4 -1.899284,2.900325 -2.599284,4.500325 l 4.099935,2.898763 c -0.9,2.1 -1.50013,4.40013 -1.80013,6.80013 l -5,0.400391 c -0.2,0.7 -0.200195,1.6 -0.200195,2.5 0,0.9 -7.16e-4,1.799284 0.09928,2.599284 l 5,0.40039 c 0.3,2.4 0.90013,4.700131 1.80013,6.800131 l -4.099935,2.90039 c 0.7,1.6 1.600911,3.100326 2.600911,4.500326 l 4.500326,-2.101237 c 1.4,1.9 3.1,3.500716 5,4.900716 l -2.101237,4.599609 c 1.4,1 2.900326,1.900912 4.500326,2.600912 l 2.90039,-4.099935 c 2.1,0.9 4.399219,1.50013 6.699219,1.80013 l 0.400395,5.099284 h 2.700195 c 0.9,0 1.799284,7.16e-4 2.599284,-0.09928 l 0.40039,-5.100911 c 2.3,-0.3 4.600847,-0.900131 6.700847,-1.800131 l 2.898763,4.200847 c 1.6,-0.7 3.100325,-1.600912 4.500325,-2.600912 l -2.099609,-4.698897 c 1.9,-1.4 3.500715,-3.000716 4.900715,-4.900716 l 4.59961,2.200521 c 1,-1.4 1.899284,-2.900326 2.599284,-4.500326 l -4.099935,-2.90039 c 0.9,-2.1 1.500131,-4.399219 1.800131,-6.699219 l 5.10091,-0.501302 c 0.1,-0.8 0.09928,-1.699284 0.09928,-2.599284 0,-0.9 7.15e-4,-1.799284 -0.09928,-2.599284 l -5.10091,-0.40039 c -0.3,-2.4 -0.900131,-4.600847 -1.800131,-6.700847 l 4.200846,-2.898763 c -0.7,-1.6 -1.600911,-3.100325 -2.600911,-4.500325 l -4.599609,2.099609 c -1.4,-1.9 -3.100716,-3.500716 -4.900716,-4.900716 l 2.200521,-4.599609 c -1.4,-1 -2.900326,-1.899284 -4.500326,-2.599284 l -2.999674,4.099935 c -2.1,-0.9 -4.399219,-1.500131 -6.699219,-1.800131 l -0.400391,-5.100911 c -0.9,-0.1 -1.800195,-0.09928 -2.700195,-0.09928 z m -9.391276,15.613607 8.390299,4.840495 8.387044,4.845377 -5.136718,2.967123 7.141927,12.369791 -6.502279,3.75 -7.140299,-12.366536 -5.138347,2.967122 v -9.689127 z"
         id="path4"
         inkscape:connector-curvature="0" /><path
         sodipodi:nodetypes="ccccccccccccsccccccccccccccccccccccccccccccccccccccsccccccccccc"
         style="fill:#89aace;stroke-width:1"
         d="m 108.99865,67.614673 -3.32221,3.890418 c -2.11798,-1.16798 -4.24991,-1.975173 -6.477862,-2.48137 l 0.06427,-5.022511 C 97.556971,63.627068 95.814156,63.474397 94.09375,63.460517 l -1.006147,4.955553 c -2.360034,0.01583 -4.652982,0.451177 -6.924522,1.02573 l -2.406672,-4.344386 c -1.631916,0.544838 -3.240727,1.229484 -4.747495,2.112461 l 1.612327,4.756003 c -1.962464,1.169929 -3.800254,2.677243 -5.453645,4.442548 L 70.886881,73.79414 c -0.573253,0.448755 -1.101396,1.175705 -1.630403,1.903821 -0.529006,0.728114 -1.057911,1.456425 -1.447238,2.162417 l 3.810096,3.263492 c -1.167978,2.117976 -2.034463,4.331751 -2.540695,6.559693 l -5.022479,-0.06425 c -0.374144,1.705877 -0.526811,3.448683 -0.540694,5.169093 l 4.874299,0.945322 c 0.01583,2.360032 0.45054,4.653514 1.164774,6.902922 l -4.401598,2.48759 c 0.544842,1.63191 1.228904,3.24224 2.111882,4.74901 l 4.756002,-1.61232 c 1.169926,1.96247 2.678411,3.79878 4.362809,5.3934 l -2.675112,4.36197 2.184011,1.58628 c 0.728113,0.529 1.456424,1.05791 2.162415,1.44723 l 3.32222,-3.89041 c 2.037079,1.1092 4.249906,1.97518 6.4779,2.48127 l -0.122977,5.1028 c 1.705874,0.37414 3.44868,0.5268 5.169092,0.54069 l 1.064874,-5.03587 c 2.360036,-0.0158 4.59479,-0.37022 6.844201,-1.08445 l 2.42768,4.48495 c 1.63192,-0.54485 3.24131,-1.23101 4.74808,-2.11399 l -1.61233,-4.756 c 1.96248,-1.16993 3.80031,-2.67783 5.39492,-4.36223 l 4.41918,2.59421 c 0.55113,-0.58843 1.08038,-1.31627 1.6094,-2.04438 0.529,-0.72812 1.0579,-1.45643 1.44722,-2.16242 l -3.89041,-3.32222 c 1.16798,-2.11797 1.97518,-4.2499 2.48128,-6.477892 l 5.10279,0.122979 c 0.37417,-1.705867 0.52681,-3.448685 0.54069,-5.169095 l -4.95403,-1.005567 c -0.0158,-2.360031 -0.45113,-4.653563 -1.08446,-6.8442 l 4.48343,-2.428265 c -0.54483,-1.631913 -1.22948,-3.240725 -2.11246,-4.747494 l -4.83784,1.553018 c -1.16993,-1.962466 -2.67783,-3.800309 -4.36223,-5.394919 l 2.67453,-4.360451 c -0.66926,-0.609745 -1.39651,-1.138951 -2.12462,-1.667957 -0.72812,-0.529005 -1.45643,-1.057909 -2.16243,-1.44724 z m -16.620833,15.760496 8.397043,4.832045 8.39379,4.830426 -8.38028,4.855439 -8.383544,4.853811 -0.0083,-5.932606 -14.283843,0.01991 -0.0073,-7.50488 14.280595,-0.01991 z"
         id="path8"
         inkscape:connector-curvature="0" /><path
         sodipodi:nodetypes="ccccccccccccscccccccccccccccccccccccccsccccccccccccscccccccccccc"
         style="fill:#c4d5e7;stroke-width:1"
         d="m 23.705031,64.012806 0.22505,5.110407 c -2.345549,0.59025 -4.456757,1.454488 -6.431408,2.603742 l -3.378329,-3.71703 c -1.502765,0.889775 -2.881493,1.966713 -4.149188,3.129876 l 2.645337,4.309844 c -1.715222,1.621117 -3.0967805,3.503904 -4.3662345,5.473292 L 3.5287739,79.386391 c -0.8219223,1.51145 -1.5331131,3.109984 -2.0329049,4.783366 l 4.4227663,2.378716 c -0.6373658,2.19403 -0.9519459,4.549171 -0.9572225,6.967842 l -4.91365609,1.007472 c -0.11320098,0.719157 -0.0036808,1.611007 0.10600123,2.504299 0.10968239,0.89329 0.21806421,1.787265 0.41481346,2.569115 l 5.0122245,-0.211712 c 0.5902496,2.345551 1.4663325,4.555541 2.6155542,6.530201 l -3.7155195,3.37772 c 0.8897721,1.50277 1.965202,2.88211 3.1283652,4.1498 L 11.82025,110.8097 c 1.621116,1.71522 3.503193,3.0961 5.559646,4.25411 l -1.524108,4.82179 c 1.511432,0.82192 3.109965,1.53311 4.783347,2.0329 l 2.378717,-4.42276 c 2.194032,0.63737 4.549632,0.95158 6.869051,0.96905 l 1.019911,5.01396 2.679124,-0.32936 c 0.893291,-0.10969 1.786657,-0.21957 2.568505,-0.41633 l -0.225049,-5.11041 c 2.246296,-0.57806 4.45676,-1.45448 6.431369,-2.60383 l 3.390158,3.81582 c 1.502763,-0.88978 2.881489,-1.96672 4.149186,-3.12988 l -2.65713,-4.40855 c 1.71522,-1.62112 3.10792,-3.4044 4.265934,-5.46085 l 4.834222,1.62441 c 0.821927,-1.51144 1.53251,-3.11148 2.032302,-4.78486 l -4.422769,-2.37872 c 0.637366,-2.194034 0.951587,-4.549635 0.969052,-6.86905 l 5.002738,-1.117193 c 0.0018,-0.806224 -0.109057,-1.69887 -0.218739,-2.592162 -0.109682,-0.893291 -0.218063,-1.787265 -0.414813,-2.569115 l -5.112526,0.224149 c -0.590249,-2.345549 -1.45237,-4.455857 -2.601556,-6.430534 l 3.814312,-3.389547 C 54.501381,76.049964 53.425932,74.670636 52.262769,73.40294 l -4.310456,2.643827 c -1.621116,-1.715221 -3.503654,-3.095735 -5.460855,-4.265934 l 1.622901,-4.833612 c -1.511433,-0.821929 -3.109358,-1.531611 -4.78274,-2.031403 l -2.477507,4.434595 c -2.194034,-0.637364 -4.550248,-0.953094 -6.869665,-0.970558 l -1.017791,-5.013057 c -0.905478,0.01043 -1.79978,0.119984 -2.693072,0.229667 -0.893292,0.109682 -1.786656,0.219573 -2.568507,0.416323 z m 10.524018,14.752929 6.31007,4.064415 -7.729292,12.007213 4.990579,3.213555 -8.614469,4.432832 -8.611137,4.43135 0.466147,-9.674641 0.469623,-9.676111 4.987405,3.211774 z"
         id="path1073"
         inkscape:connector-curvature="0" /></g></g></svg>